<?xml version="1.0" standalone="no"?>
<!DOCTYPE svg PUBLIC "-//W3C//DTD SVG 20010904//EN"
 "http://www.w3.org/TR/2001/REC-SVG-20010904/DTD/svg10.dtd">
<svg version="1.0" xmlns="http://www.w3.org/2000/svg"
 width="512.000000pt" height="512.000000pt" viewBox="0 0 512.000000 512.000000"
 preserveAspectRatio="xMidYMid meet">
<metadata>
Created by potrace 1.14, written by Peter Selinger 2001-2017
</metadata>
<g transform="translate(0.000000,512.000000) scale(0.100000,-0.100000)"
fill="#000000" stroke="none">
<path d="M1413 5110 c-44 -18 -47 -38 -48 -357 0 -166 -4 -305 -8 -309 -4 -4
-300 -8 -658 -8 l-651 -1 -24 -28 -24 -28 0 -2160 0 -2161 29 -29 29 -29 1262
0 c846 0 1268 3 1281 10 48 26 46 -61 45 2012 -1 1071 2 1944 6 1940 3 -4 32
-106 63 -227 31 -121 74 -287 96 -370 70 -266 170 -649 174 -670 3 -11 27
-103 54 -205 26 -102 76 -293 111 -425 34 -132 75 -287 90 -345 15 -58 42
-159 59 -225 17 -66 60 -232 96 -370 36 -137 86 -329 111 -425 183 -703 171
-664 204 -683 32 -19 59 -17 170 13 41 11 82 22 90 24 8 2 152 41 320 86 291
78 356 95 654 174 187 49 194 61 146 241 -17 64 -33 123 -35 133 -2 9 -15 60
-29 112 -60 226 -98 371 -160 610 -36 140 -93 356 -125 480 -32 124 -80 306
-105 405 -26 99 -65 248 -87 330 -21 83 -65 251 -98 375 -32 124 -82 315 -111
425 -28 109 -53 206 -55 215 -2 8 -29 112 -60 230 -31 118 -58 222 -60 230
-12 53 -68 259 -76 280 -19 50 -67 65 -137 45 -38 -11 -662 -178 -767 -205
-212 -54 -466 -124 -488 -133 -15 -7 -30 -20 -33 -30 -3 -10 -9 -16 -12 -12
-3 3 -7 232 -7 508 -1 538 -1 538 -51 557 -32 13 -1151 12 -1181 0z m1062
-328 c0 -90 -3 -166 -7 -168 -14 -9 -922 -4 -928 5 -4 7 -5 317 -1 329 1 1
211 1 468 0 l468 -3 0 -163z m0 -471 l-1 -126 -469 0 -469 0 -1 115 c-1 63 0
120 2 126 3 8 141 11 471 11 l467 0 0 -126z m-1110 -173 l0 -128 -597 0 -598
0 0 128 0 128 597 0 598 -1 0 -127z m2626 -46 c40 -151 48 -186 49 -193 0 -6
-102 -37 -240 -73 -30 -8 -210 -56 -400 -106 -190 -51 -371 -99 -403 -108 -34
-8 -62 -11 -67 -6 -13 14 -94 334 -86 341 4 4 253 73 554 153 510 136 548 145
554 127 4 -10 22 -71 39 -135z m-1520 -99 c1 -10 2 -682 3 -1493 l1 -1475
-467 0 -468 0 -1 25 c-3 68 -4 2946 -1 2953 2 4 212 7 468 7 435 0 464 -1 465
-17z m-1106 -1430 l0 -1278 -597 -3 -598 -2 0 1280 0 1280 598 0 597 0 0
-1277z m2740 1087 c10 -39 15 -73 12 -76 -9 -9 -1097 -297 -1103 -292 -5 6
-44 142 -41 145 3 3 257 72 527 143 129 34 305 82 390 105 85 23 165 43 176
44 19 1 24 -9 39 -69z m90 -343 c2 -10 29 -114 59 -230 31 -117 88 -333 126
-482 39 -148 87 -331 106 -405 42 -161 56 -214 124 -474 28 -109 48 -202 43
-206 -4 -4 -98 -31 -208 -60 -110 -29 -265 -70 -345 -92 -80 -21 -154 -41
-165 -43 -11 -3 -101 -27 -200 -54 -99 -27 -181 -48 -183 -46 -4 3 -61 215
-112 415 -23 91 -52 203 -65 250 -13 47 -44 166 -69 265 -25 99 -53 205 -61
235 -9 30 -38 143 -65 250 -27 107 -54 211 -60 230 -6 19 -23 83 -38 142 l-29
106 96 27 c53 14 303 81 556 149 l460 123 13 -41 c7 -23 15 -49 17 -59z m534
-2049 c35 -135 39 -151 54 -200 l14 -47 -51 -15 c-28 -8 -206 -56 -396 -106
-190 -50 -401 -106 -470 -125 -222 -60 -199 -57 -207 -27 -3 15 -23 89 -43
165 -21 76 -34 140 -29 142 4 3 101 30 216 61 114 30 267 71 338 90 72 19 191
51 265 71 74 19 164 44 200 53 36 10 70 19 76 19 7 1 21 -36 33 -81z m-3363
-268 c0 -63 -1 -120 -3 -126 -3 -7 -184 -10 -598 -10 l-595 0 0 128 0 128 598
-2 597 -3 1 -115z m1105 -150 c1 -8 2 -46 3 -85 l1 -70 -465 -1 c-256 -1 -467
2 -470 6 -3 5 -5 41 -5 81 0 68 2 74 23 79 13 3 223 5 468 5 387 0 444 -2 445
-15z m2369 -2 c0 -2 20 -79 45 -173 24 -93 41 -173 37 -177 -4 -4 -52 -18
-107 -32 -55 -14 -302 -79 -549 -146 -247 -66 -450 -119 -451 -117 -1 1 -15
54 -30 117 -16 63 -36 141 -46 172 -10 34 -13 60 -8 64 5 3 127 36 272 74 144
38 276 74 292 79 17 5 111 30 210 56 99 26 207 55 240 65 55 17 95 24 95 18z
m-3480 -157 c3 -1 5 -116 5 -256 l0 -255 -597 0 -598 0 0 258 0 257 592 -2
c326 -1 595 -2 598 -2z m1115 -338 l0 -168 -470 0 -469 0 -1 155 c0 85 1 161
3 168 3 9 106 12 471 12 l466 0 0 -167z"/>
<path d="M418 3582 c-35 -9 -58 -28 -68 -55 -14 -41 -14 -703 1 -745 7 -20 21
-34 41 -41 20 -7 157 -11 380 -11 387 0 400 2 415 61 5 17 8 190 8 385 l-1
354 -27 27 -27 27 -354 1 c-196 0 -361 -1 -368 -3z m599 -176 c4 -4 7 -119 8
-256 l0 -250 -257 0 -258 0 0 254 0 255 23 3 c44 6 477 1 484 -6z"/>
</g>
</svg>
